<svg width="543" height="348" xmlns="http://www.w3.org/2000/svg" xmlns:xlink="http://www.w3.org/1999/xlink" overflow="hidden"><defs><clipPath id="clip0"><rect x="361" y="145" width="543" height="348"/></clipPath></defs><g clip-path="url(#clip0)" transform="translate(-361 -145)"><path d="M536.931 369.027C511.359 368.202 383.501 421.82 383.501 421.82 367.828 425.944 368.653 441.617 397.525 450.691L500.635 481.212C556.728 497.71 569.101 498.534 609.521 458.115L651.59 402.847C665.613 383.875 656.539 368.202 630.968 369.027L536.931 369.027Z" fill="#231F20" fill-rule="evenodd" fill-opacity="0.34902"/><path d="M536.931 286.538C510.534 286.538 383.501 233.745 383.501 233.745 367.829 229.621 368.653 213.948 397.524 204.874L500.635 172.704C556.728 156.206 569.101 155.381 609.521 195.8L651.59 251.068C665.613 270.04 656.539 285.713 630.968 284.888L536.931 286.538Z" fill="#231F20" fill-rule="evenodd" fill-opacity="0.34902"/><path d="M553.428 352.529C527.857 351.704 399.999 405.322 399.999 405.322 384.326 409.447 385.151 425.12 414.022 434.193L517.133 464.714C573.225 481.212 585.599 482.037 626.018 441.617L668.088 386.35C682.111 367.377 673.037 351.704 647.465 352.529L553.428 352.529Z" fill="#C75C5C" fill-rule="evenodd"/><path d="M553.428 270.04C527.032 270.04 399.999 217.248 399.999 217.248 384.326 213.123 385.151 197.45 414.022 188.376L517.133 156.206C573.225 139.708 585.599 138.883 626.018 179.303L668.088 234.57C682.111 253.543 673.037 269.215 647.465 268.391L553.428 270.04Z" fill="#C75C5C" fill-rule="evenodd"/><path d="M653.24 442.442C524.557 442.442 442.893 326.133 442.893 326.133 442.893 326.133 524.557 209.824 653.24 209.824 781.922 209.824 885.858 300.561 886.683 326.133 886.683 350.879 781.922 442.442 653.24 442.442Z" fill="#231F20" fill-rule="evenodd" fill-opacity="0.34902"/><path d="M669.737 425.944C541.055 425.944 459.391 309.635 459.391 309.635 459.391 309.635 541.055 193.326 669.737 193.326 798.42 193.326 902.356 284.064 903.181 309.635 903.181 334.382 798.42 425.944 669.737 425.944Z" fill="#E0E0D1" fill-rule="evenodd"/><path d="M385.151 337.681C371.953 337.681 362.054 339.331 362.054 326.133L362.054 326.133C362.054 312.935 371.953 314.584 385.151 314.584L571.576 291.488C584.774 291.488 618.595 313.76 617.77 326.133L617.77 326.133C617.77 339.331 583.949 361.603 571.576 360.778L385.151 337.681Z" fill="#231F20" fill-rule="evenodd" fill-opacity="0.34902"/><path d="M401.649 321.184C388.451 321.184 378.552 322.833 378.552 309.635L378.552 309.635C378.552 296.437 388.451 298.087 401.649 298.087L588.074 274.99C601.272 274.99 635.092 297.262 634.267 309.635L634.267 309.635C634.267 322.833 600.447 345.105 588.074 344.281L401.649 321.184Z" fill="#C75C5C" fill-rule="evenodd"/><path d="M735.729 359.953C717.506 378.176 687.961 378.176 669.737 359.953 651.515 341.73 651.515 312.185 669.738 293.962 687.961 275.739 717.506 275.739 735.729 293.962 753.952 312.185 753.951 341.73 735.729 359.953Z" fill="#231F20" fill-rule="evenodd" fill-opacity="0.34902"/><path d="M812.443 344.28C803.332 353.392 788.559 353.392 779.448 344.28 770.336 335.169 770.336 320.396 779.448 311.285 788.559 302.173 803.332 302.173 812.443 311.285 821.555 320.396 821.555 335.169 812.443 344.28Z" fill="#231F20" fill-rule="evenodd" fill-opacity="0.34902"/><path d="M752.226 343.455C734.003 361.678 704.458 361.679 686.235 343.456 668.012 325.233 668.012 295.687 686.235 277.464 704.458 259.242 734.003 259.242 752.226 277.464 770.449 295.687 770.449 325.233 752.226 343.455Z" fill="#4F5D73" fill-rule="evenodd"/><path d="M828.941 327.782C819.829 336.894 805.057 336.894 795.945 327.782 786.834 318.671 786.834 303.898 795.945 294.787 805.057 285.676 819.829 285.676 828.941 294.787 838.052 303.898 838.052 318.671 828.941 327.782Z" fill="#4F5D73" fill-rule="evenodd"/></g></svg>